# xmcd
#
# Track frame offsets:
#	150
#	18422
#	31910
#	47527
#	63775
#	79922
#	92472
#	108020
#	123712
#	140580
#	154552
#	175507
#
# Disc length: 2642 seconds
#
# Revision: 1
# Processed by: cddbd v1.5.2PL0 Copyright (c) Steve Scherf et al.
# Submitted via: audiograbber 1.83.01
#
DISCID=870a500c
DTITLE=Stac Underwood - Rebel WIth A Cause
DYEAR=1900
DGENRE=Country
TTITLE0=Fairy Tale Romance
TTITLE1=Angel WIth An Attitude
TTITLE2=Forget About Her
TTITLE3=Amazing Grace
TTITLE4=Rebel With A Cause
TTITLE5=Go West Young Man (And I'll Go East)
TTITLE6=Livin' On The Edge Of Love
TTITLE7=If You Don't Tell Them (Who Will)
TTITLE8=Until Now
TTITLE9=I'll Still Be Lovin' You
TTITLE10=That Was My Cross
TTITLE11=Just As I Am/He Touched Me/Great Is Thy Faithfulness
EXTD=
EXTT0=
EXTT1=
EXTT2=
EXTT3=
EXTT4=
EXTT5=
EXTT6=
EXTT7=
EXTT8=
EXTT9=
EXTT10=
EXTT11=
PLAYORDER=
